<svg width="48" height="48" viewBox="0 0 24 24" fill="none" xmlns="http://www.w3.org/2000/svg">
  <!-- Giấy quiz -->
  <path d="M6 2h9l5 5v15a1 1 0 0 1-1 1H6a1 1 0 0 1-1-1V3a1 1 0 0 1 1-1z" stroke="#141719" stroke-width="2" stroke-linecap="round" stroke-linejoin="round"></path>
  <!-- Nếp gập góc -->
  <path d="M15 2v5h5" stroke="#141719" stroke-width="2" stroke-linecap="round" stroke-linejoin="round"></path>
  <!-- Checkbox & dòng chữ 1 -->
  <rect x="8" y="9" width="2" height="2" stroke="#141719" stroke-width="2" stroke-linecap="round" stroke-linejoin="round" fill="none"></rect>
  <path d="M8.5 10l0.5 0.5 1-1" stroke="#141719" stroke-width="2" stroke-linecap="round" stroke-linejoin="round"></path>
  <line x1="12" y1="10" x2="16" y2="10" stroke="#141719" stroke-width="2" stroke-linecap="round" stroke-linejoin="round"></line>
  <!-- Checkbox & dòng chữ 2 -->
  <rect x="8" y="13" width="2" height="2" stroke="#141719" stroke-width="2" stroke-linecap="round" stroke-linejoin="round" fill="none"></rect>
  <path d="M8.5 14l0.5 0.5 1-1" stroke="#141719" stroke-width="2" stroke-linecap="round" stroke-linejoin="round"></path>
  <line x1="12" y1="14" x2="16" y2="14" stroke="#141719" stroke-width="2" stroke-linecap="round" stroke-linejoin="round"></line>
  <!-- Hành tinh nhỏ -->
  <circle cx="18" cy="18" r="2" stroke="#141719" stroke-width="2" stroke-linecap="round" stroke-linejoin="round"></circle>
  <ellipse cx="18" cy="18" rx="3.5" ry="1" transform="rotate(-30 18 18)" stroke="#141719" stroke-width="2" stroke-linecap="round" stroke-linejoin="round"></ellipse>
</svg>
